# WaveFront *.obj file (generated by Autodesk ATF)

g Obj.7

v 1.000000 28.000000 21.000000
v 1.000000 28.000000 0.000000
v -0.000000 28.000000 21.000000
v -0.000000 28.000000 0.000000
v 1.000000 15.000000 21.000000
v -0.000000 15.000000 21.000000
v 1.000000 15.000000 0.000000
v -0.000000 15.000000 0.000000
vt 0.000000 0.000000 0.000000
vt 0.459270 -0.000000 0.000000
vt -0.000000 0.010940 0.000000
vt 0.459270 0.010940 0.000000
vt 0.284310 0.000000 0.000000
vt 0.000000 0.010940 0.000000
vt 0.284310 0.010940 0.000000
vt 0.459270 0.000000 0.000000
vt 0.284310 -0.000000 0.000000
vt -0.229635 0.071110 0.000000
vt 0.229635 -0.071110 0.000000
vt 0.229635 0.071110 0.000000
vt -0.229635 -0.071110 0.000000
vn 0.000000 10.000000 0.000000
vn -0.000000 0.000000 10.000000
vn 0.000000 -10.000000 0.000000
vn 0.000000 0.000000 -10.000000
vn -10.000000 0.000000 -0.000000
vn 10.000000 0.000000 0.000000
usemtl Obj.7
f 1/1/1 2/2/1 3/3/1
f 3/3/1 2/2/1 4/4/1
f 5/1/2 1/5/2 6/6/2
f 6/6/2 1/5/2 3/7/2
f 7/1/3 5/8/3 8/6/3
f 8/6/3 5/8/3 6/4/3
f 2/1/4 7/9/4 4/6/4
f 4/6/4 7/9/4 8/7/4
f 4/10/5 6/11/5 3/12/5
f 8/13/5 6/11/5 4/10/5
f 7/11/6 1/10/6 5/13/6
f 2/12/6 1/10/6 7/11/6

# 8 vertices
# 13 texture params
# 6 normals
# 12 facets

# 1 groups
